<?xml version="1.0" encoding="UTF-8" standalone="no"?>
<!DOCTYPE svg PUBLIC "-//W3C//DTD SVG 1.1//EN"
 "http://www.w3.org/Graphics/SVG/1.1/DTD/svg11.dtd">
<!-- Generated by graphviz version 13.1.0 (20250701.0955)
 -->
<!-- Pages: 1 -->
<svg width="1413pt" height="198pt"
 viewBox="0.00 0.00 1413.00 198.00" xmlns="http://www.w3.org/2000/svg" xmlns:xlink="http://www.w3.org/1999/xlink">
<g id="graph0" class="graph" transform="scale(1 1) rotate(0) translate(4 194)">
<polygon fill="white" stroke="none" points="-4,4 -4,-194 1408.5,-194 1408.5,4 -4,4"/>
<!-- Integer -->
<g id="node1" class="node">
<title>Integer</title>
<polygon fill="#90c695" stroke="black" points="376.12,-190 321.88,-190 321.88,-154 376.12,-154 376.12,-190"/>
<text xml:space="preserve" text-anchor="middle" x="349" y="-166.95" font-family="Times,serif" font-size="14.00">Integer</text>
</g>
<!-- Constant1 -->
<g id="node4" class="node">
<title>Constant1</title>
<polygon fill="#87ceeb" stroke="black" points="64,-115.5 0,-115.5 0,-79.5 64,-79.5 64,-115.5"/>
<text xml:space="preserve" text-anchor="middle" x="32" y="-92.45" font-family="Times,serif" font-size="14.00">Constant</text>
</g>
<!-- Integer&#45;&gt;Constant1 -->
<g id="edge1" class="edge">
<title>Integer&#45;&gt;Constant1</title>
<path fill="none" stroke="black" d="M321.42,-183C244.3,-183 32,-183 32,-183 32,-183 32,-127.15 32,-127.15"/>
<polygon fill="black" stroke="black" points="35.5,-127.15 32,-117.15 28.5,-127.15 35.5,-127.15"/>
</g>
<!-- FOR -->
<g id="node5" class="node">
<title>FOR</title>
<polygon fill="#87ceeb" stroke="black" points="136,-115.5 82,-115.5 82,-79.5 136,-79.5 136,-115.5"/>
<text xml:space="preserve" text-anchor="middle" x="109" y="-92.45" font-family="Times,serif" font-size="14.00">FOR</text>
</g>
<!-- Integer&#45;&gt;FOR -->
<g id="edge2" class="edge">
<title>Integer&#45;&gt;FOR</title>
<path fill="none" stroke="black" d="M321.47,-176C258.43,-176 109,-176 109,-176 109,-176 109,-127.22 109,-127.22"/>
<polygon fill="black" stroke="black" points="112.5,-127.22 109,-117.22 105.5,-127.22 112.5,-127.22"/>
</g>
<!-- ZigZag -->
<g id="node6" class="node">
<title>ZigZag</title>
<polygon fill="#87ceeb" stroke="black" points="209.88,-115.5 154.12,-115.5 154.12,-79.5 209.88,-79.5 209.88,-115.5"/>
<text xml:space="preserve" text-anchor="middle" x="182" y="-92.45" font-family="Times,serif" font-size="14.00">ZigZag</text>
</g>
<!-- Integer&#45;&gt;ZigZag -->
<g id="edge3" class="edge">
<title>Integer&#45;&gt;ZigZag</title>
<path fill="none" stroke="black" d="M321.42,-168C273.99,-168 182,-168 182,-168 182,-168 182,-127.17 182,-127.17"/>
<polygon fill="black" stroke="black" points="185.5,-127.17 182,-117.17 178.5,-127.17 185.5,-127.17"/>
</g>
<!-- BitPacking1 -->
<g id="node7" class="node">
<title>BitPacking1</title>
<polygon fill="#87ceeb" stroke="black" points="304,-115.5 228,-115.5 228,-79.5 304,-79.5 304,-115.5"/>
<text xml:space="preserve" text-anchor="middle" x="266" y="-92.45" font-family="Times,serif" font-size="14.00">BitPacking</text>
</g>
<!-- Integer&#45;&gt;BitPacking1 -->
<g id="edge4" class="edge">
<title>Integer&#45;&gt;BitPacking1</title>
<path fill="none" stroke="black" d="M321.82,-161C297.62,-161 266,-161 266,-161 266,-161 266,-127.38 266,-127.38"/>
<polygon fill="black" stroke="black" points="269.5,-127.38 266,-117.38 262.5,-127.38 269.5,-127.38"/>
</g>
<!-- Sparse -->
<g id="node8" class="node">
<title>Sparse</title>
<polygon fill="#87ceeb" stroke="black" points="376,-115.5 322,-115.5 322,-79.5 376,-79.5 376,-115.5"/>
<text xml:space="preserve" text-anchor="middle" x="349" y="-92.45" font-family="Times,serif" font-size="14.00">Sparse</text>
</g>
<!-- Integer&#45;&gt;Sparse -->
<g id="edge5" class="edge">
<title>Integer&#45;&gt;Sparse</title>
<path fill="none" stroke="black" d="M349,-153.58C349,-153.58 349,-127.48 349,-127.48"/>
<polygon fill="black" stroke="black" points="352.5,-127.48 349,-117.48 345.5,-127.48 352.5,-127.48"/>
</g>
<!-- Dict1 -->
<g id="node9" class="node">
<title>Dict1</title>
<polygon fill="#87ceeb" stroke="black" points="448,-115.5 394,-115.5 394,-79.5 448,-79.5 448,-115.5"/>
<text xml:space="preserve" text-anchor="middle" x="421" y="-92.45" font-family="Times,serif" font-size="14.00">Dict</text>
</g>
<!-- Integer&#45;&gt;Dict1 -->
<g id="edge6" class="edge">
<title>Integer&#45;&gt;Dict1</title>
<path fill="none" stroke="black" d="M376.22,-159C396.61,-159 421,-159 421,-159 421,-159 421,-127.47 421,-127.47"/>
<polygon fill="black" stroke="black" points="424.5,-127.47 421,-117.47 417.5,-127.47 424.5,-127.47"/>
</g>
<!-- RunEnd -->
<g id="node10" class="node">
<title>RunEnd</title>
<polygon fill="#87ceeb" stroke="black" points="526.12,-115.5 465.88,-115.5 465.88,-79.5 526.12,-79.5 526.12,-115.5"/>
<text xml:space="preserve" text-anchor="middle" x="496" y="-92.45" font-family="Times,serif" font-size="14.00">RunEnd</text>
</g>
<!-- Integer&#45;&gt;RunEnd -->
<g id="edge7" class="edge">
<title>Integer&#45;&gt;RunEnd</title>
<path fill="none" stroke="black" d="M376.31,-169C418.82,-169 496,-169 496,-169 496,-169 496,-127.43 496,-127.43"/>
<polygon fill="black" stroke="black" points="499.5,-127.43 496,-117.43 492.5,-127.43 499.5,-127.43"/>
</g>
<!-- Sequence -->
<g id="node11" class="node">
<title>Sequence</title>
<polygon fill="#87ceeb" stroke="black" points="611.88,-115.5 544.12,-115.5 544.12,-79.5 611.88,-79.5 611.88,-115.5"/>
<text xml:space="preserve" text-anchor="middle" x="578" y="-92.45" font-family="Times,serif" font-size="14.00">Sequence</text>
</g>
<!-- Integer&#45;&gt;Sequence -->
<g id="edge8" class="edge">
<title>Integer&#45;&gt;Sequence</title>
<path fill="none" stroke="black" d="M376.62,-180C437.53,-180 578,-180 578,-180 578,-180 578,-127.32 578,-127.32"/>
<polygon fill="black" stroke="black" points="581.5,-127.32 578,-117.32 574.5,-127.32 581.5,-127.32"/>
</g>
<!-- Uncompressed1 -->
<g id="node12" class="node">
<title>Uncompressed1</title>
<polygon fill="#87ceeb" stroke="black" points="690.5,-118 629.5,-118 629.5,-77 690.5,-77 690.5,-118"/>
<text xml:space="preserve" text-anchor="middle" x="660" y="-100.7" font-family="Times,serif" font-size="14.00">Uncom&#45;</text>
<text xml:space="preserve" text-anchor="middle" x="660" y="-84.2" font-family="Times,serif" font-size="14.00">pressed</text>
</g>
<!-- Integer&#45;&gt;Uncompressed1 -->
<g id="edge9" class="edge">
<title>Integer&#45;&gt;Uncompressed1</title>
<path fill="none" stroke="black" d="M376.6,-185C452.71,-185 660,-185 660,-185 660,-185 660,-129.75 660,-129.75"/>
<polygon fill="black" stroke="black" points="663.5,-129.75 660,-119.75 656.5,-129.75 663.5,-129.75"/>
</g>
<!-- Float -->
<g id="node2" class="node">
<title>Float</title>
<polygon fill="#90c695" stroke="black" points="920,-190 866,-190 866,-154 920,-154 920,-190"/>
<text xml:space="preserve" text-anchor="middle" x="893" y="-166.95" font-family="Times,serif" font-size="14.00">Float</text>
</g>
<!-- Constant2 -->
<g id="node13" class="node">
<title>Constant2</title>
<polygon fill="#87ceeb" stroke="black" points="773,-115.5 709,-115.5 709,-79.5 773,-79.5 773,-115.5"/>
<text xml:space="preserve" text-anchor="middle" x="741" y="-92.45" font-family="Times,serif" font-size="14.00">Constant</text>
</g>
<!-- Float&#45;&gt;Constant2 -->
<g id="edge10" class="edge">
<title>Float&#45;&gt;Constant2</title>
<path fill="none" stroke="black" d="M865.83,-175C822.1,-175 741,-175 741,-175 741,-175 741,-127.38 741,-127.38"/>
<polygon fill="black" stroke="black" points="744.5,-127.38 741,-117.38 737.5,-127.38 744.5,-127.38"/>
</g>
<!-- ALP -->
<g id="node14" class="node">
<title>ALP</title>
<polygon fill="#87ceeb" stroke="black" points="845,-115.5 791,-115.5 791,-79.5 845,-79.5 845,-115.5"/>
<text xml:space="preserve" text-anchor="middle" x="818" y="-92.45" font-family="Times,serif" font-size="14.00">ALP</text>
</g>
<!-- Float&#45;&gt;ALP -->
<g id="edge11" class="edge">
<title>Float&#45;&gt;ALP</title>
<path fill="none" stroke="black" d="M865.92,-164C844.44,-164 818,-164 818,-164 818,-164 818,-127.18 818,-127.18"/>
<polygon fill="black" stroke="black" points="821.5,-127.18 818,-117.18 814.5,-127.18 821.5,-127.18"/>
</g>
<!-- ALPRD -->
<g id="node15" class="node">
<title>ALPRD</title>
<polygon fill="#87ceeb" stroke="black" points="923.12,-115.5 862.88,-115.5 862.88,-79.5 923.12,-79.5 923.12,-115.5"/>
<text xml:space="preserve" text-anchor="middle" x="893" y="-92.45" font-family="Times,serif" font-size="14.00">ALPRD</text>
</g>
<!-- Float&#45;&gt;ALPRD -->
<g id="edge12" class="edge">
<title>Float&#45;&gt;ALPRD</title>
<path fill="none" stroke="black" d="M893,-153.58C893,-153.58 893,-127.48 893,-127.48"/>
<polygon fill="black" stroke="black" points="896.5,-127.48 893,-117.48 889.5,-127.48 896.5,-127.48"/>
</g>
<!-- Dict2 -->
<g id="node16" class="node">
<title>Dict2</title>
<polygon fill="#87ceeb" stroke="black" points="995,-115.5 941,-115.5 941,-79.5 995,-79.5 995,-115.5"/>
<text xml:space="preserve" text-anchor="middle" x="968" y="-92.45" font-family="Times,serif" font-size="14.00">Dict</text>
</g>
<!-- Float&#45;&gt;Dict2 -->
<g id="edge13" class="edge">
<title>Float&#45;&gt;Dict2</title>
<path fill="none" stroke="black" d="M920.08,-163C941.56,-163 968,-163 968,-163 968,-163 968,-127.26 968,-127.26"/>
<polygon fill="black" stroke="black" points="971.5,-127.26 968,-117.26 964.5,-127.26 971.5,-127.26"/>
</g>
<!-- Uncompressed2 -->
<g id="node17" class="node">
<title>Uncompressed2</title>
<polygon fill="#87ceeb" stroke="black" points="1074.5,-118 1013.5,-118 1013.5,-77 1074.5,-77 1074.5,-118"/>
<text xml:space="preserve" text-anchor="middle" x="1044" y="-100.7" font-family="Times,serif" font-size="14.00">Uncom&#45;</text>
<text xml:space="preserve" text-anchor="middle" x="1044" y="-84.2" font-family="Times,serif" font-size="14.00">pressed</text>
</g>
<!-- Float&#45;&gt;Uncompressed2 -->
<g id="edge14" class="edge">
<title>Float&#45;&gt;Uncompressed2</title>
<path fill="none" stroke="black" d="M920.34,-181C963.86,-181 1044,-181 1044,-181 1044,-181 1044,-129.65 1044,-129.65"/>
<polygon fill="black" stroke="black" points="1047.5,-129.65 1044,-119.65 1040.5,-129.65 1047.5,-129.65"/>
</g>
<!-- String -->
<g id="node3" class="node">
<title>String</title>
<polygon fill="#90c695" stroke="black" points="1289,-190 1235,-190 1235,-154 1289,-154 1289,-190"/>
<text xml:space="preserve" text-anchor="middle" x="1262" y="-166.95" font-family="Times,serif" font-size="14.00">String</text>
</g>
<!-- Dict3 -->
<g id="node18" class="node">
<title>Dict3</title>
<polygon fill="#87ceeb" stroke="black" points="1181,-115.5 1127,-115.5 1127,-79.5 1181,-79.5 1181,-115.5"/>
<text xml:space="preserve" text-anchor="middle" x="1154" y="-92.45" font-family="Times,serif" font-size="14.00">Dict</text>
</g>
<!-- String&#45;&gt;Dict3 -->
<g id="edge15" class="edge">
<title>String&#45;&gt;Dict3</title>
<path fill="none" stroke="black" d="M1234.75,-172C1202.75,-172 1154,-172 1154,-172 1154,-172 1154,-127.43 1154,-127.43"/>
<polygon fill="black" stroke="black" points="1157.5,-127.43 1154,-117.43 1150.5,-127.43 1157.5,-127.43"/>
</g>
<!-- FSST -->
<g id="node19" class="node">
<title>FSST</title>
<polygon fill="#87ceeb" stroke="black" points="1253,-115.5 1199,-115.5 1199,-79.5 1253,-79.5 1253,-115.5"/>
<text xml:space="preserve" text-anchor="middle" x="1226" y="-92.45" font-family="Times,serif" font-size="14.00">FSST</text>
</g>
<!-- String&#45;&gt;FSST -->
<g id="edge16" class="edge">
<title>String&#45;&gt;FSST</title>
<path fill="none" stroke="black" d="M1244,-153.58C1244,-153.58 1244,-127.48 1244,-127.48"/>
<polygon fill="black" stroke="black" points="1247.5,-127.48 1244,-117.48 1240.5,-127.48 1247.5,-127.48"/>
</g>
<!-- DictFSST -->
<g id="node20" class="node">
<title>DictFSST</title>
<polygon fill="#87ceeb" stroke="black" points="1325,-118 1271,-118 1271,-77 1325,-77 1325,-118"/>
<text xml:space="preserve" text-anchor="middle" x="1298" y="-100.7" font-family="Times,serif" font-size="14.00">Dict +</text>
<text xml:space="preserve" text-anchor="middle" x="1298" y="-84.2" font-family="Times,serif" font-size="14.00">FSST</text>
</g>
<!-- String&#45;&gt;DictFSST -->
<g id="edge17" class="edge">
<title>String&#45;&gt;DictFSST</title>
<path fill="none" stroke="black" d="M1280,-153.58C1280,-153.58 1280,-129.85 1280,-129.85"/>
<polygon fill="black" stroke="black" points="1283.5,-129.85 1280,-119.85 1276.5,-129.85 1283.5,-129.85"/>
</g>
<!-- Uncompressed3 -->
<g id="node21" class="node">
<title>Uncompressed3</title>
<polygon fill="#87ceeb" stroke="black" points="1404.5,-118 1343.5,-118 1343.5,-77 1404.5,-77 1404.5,-118"/>
<text xml:space="preserve" text-anchor="middle" x="1374" y="-100.7" font-family="Times,serif" font-size="14.00">Uncom&#45;</text>
<text xml:space="preserve" text-anchor="middle" x="1374" y="-84.2" font-family="Times,serif" font-size="14.00">pressed</text>
</g>
<!-- String&#45;&gt;Uncompressed3 -->
<g id="edge18" class="edge">
<title>String&#45;&gt;Uncompressed3</title>
<path fill="none" stroke="black" d="M1289.4,-172C1322.56,-172 1374,-172 1374,-172 1374,-172 1374,-129.77 1374,-129.77"/>
<polygon fill="black" stroke="black" points="1377.5,-129.77 1374,-119.77 1370.5,-129.77 1377.5,-129.77"/>
</g>
<!-- BitPacking2 -->
<g id="node22" class="node">
<title>BitPacking2</title>
<polygon fill="white" stroke="black" points="142,-38.5 66,-38.5 66,-2.5 142,-2.5 142,-38.5"/>
<text xml:space="preserve" text-anchor="middle" x="104" y="-15.45" font-family="Times,serif" font-size="14.00">BitPacking</text>
</g>
<!-- FOR&#45;&gt;BitPacking2 -->
<g id="edge19" class="edge">
<title>FOR&#45;&gt;BitPacking2</title>
<path fill="none" stroke="black" d="M109,-79.25C109,-79.25 109,-50.4 109,-50.4"/>
<polygon fill="black" stroke="black" points="112.5,-50.4 109,-40.4 105.5,-50.4 112.5,-50.4"/>
</g>
<!-- Integer1 -->
<g id="node24" class="node">
<title>Integer1</title>
<polygon fill="#90c695" stroke="black" points="214.12,-38.5 159.88,-38.5 159.88,-2.5 214.12,-2.5 214.12,-38.5"/>
<text xml:space="preserve" text-anchor="middle" x="187" y="-15.45" font-family="Times,serif" font-size="14.00">Integer</text>
</g>
<!-- ZigZag&#45;&gt;Integer1 -->
<g id="edge20" class="edge">
<title>ZigZag&#45;&gt;Integer1</title>
<path fill="none" stroke="black" d="M184.88,-79.25C184.88,-79.25 184.88,-50.4 184.88,-50.4"/>
<polygon fill="black" stroke="black" points="188.38,-50.4 184.88,-40.4 181.38,-50.4 188.38,-50.4"/>
</g>
<!-- Integer21 -->
<g id="node25" class="node">
<title>Integer21</title>
<polygon fill="#90c695" stroke="black" points="293.12,-38.5 238.88,-38.5 238.88,-2.5 293.12,-2.5 293.12,-38.5"/>
<text xml:space="preserve" text-anchor="middle" x="266" y="-15.45" font-family="Times,serif" font-size="14.00">Integer</text>
</g>
<!-- Sparse&#45;&gt;Integer21 -->
<g id="edge21" class="edge">
<title>Sparse&#45;&gt;Integer21</title>
<path fill="none" stroke="black" d="M336.38,-79.14C336.38,-66.89 336.38,-53 336.38,-53 336.38,-53 266,-53 266,-53 266,-53 266,-50.16 266,-50.16"/>
<polygon fill="black" stroke="black" points="269.5,-50.16 266,-40.16 262.5,-50.16 269.5,-50.16"/>
<text xml:space="preserve" text-anchor="middle" x="288.47" y="-56.2" font-family="Times,serif" font-size="14.00">positions</text>
</g>
<!-- Integer22 -->
<g id="node26" class="node">
<title>Integer22</title>
<polygon fill="#90c695" stroke="black" points="365.12,-38.5 310.88,-38.5 310.88,-2.5 365.12,-2.5 365.12,-38.5"/>
<text xml:space="preserve" text-anchor="middle" x="338" y="-15.45" font-family="Times,serif" font-size="14.00">Integer</text>
</g>
<!-- Sparse&#45;&gt;Integer22 -->
<g id="edge22" class="edge">
<title>Sparse&#45;&gt;Integer22</title>
<path fill="none" stroke="black" d="M350.75,-79.25C350.75,-79.25 350.75,-50.4 350.75,-50.4"/>
<polygon fill="black" stroke="black" points="354.25,-50.4 350.75,-40.4 347.25,-50.4 354.25,-50.4"/>
<text xml:space="preserve" text-anchor="middle" x="333.5" y="-51.52" font-family="Times,serif" font-size="14.00">values</text>
</g>
<!-- Integer3 -->
<g id="node27" class="node">
<title>Integer3</title>
<polygon fill="#90c695" stroke="black" points="437.12,-38.5 382.88,-38.5 382.88,-2.5 437.12,-2.5 437.12,-38.5"/>
<text xml:space="preserve" text-anchor="middle" x="410" y="-15.45" font-family="Times,serif" font-size="14.00">Integer</text>
</g>
<!-- Dict1&#45;&gt;Integer3 -->
<g id="edge23" class="edge">
<title>Dict1&#45;&gt;Integer3</title>
<path fill="none" stroke="black" d="M415.56,-79.25C415.56,-79.25 415.56,-50.4 415.56,-50.4"/>
<polygon fill="black" stroke="black" points="419.06,-50.4 415.56,-40.4 412.06,-50.4 419.06,-50.4"/>
<text xml:space="preserve" text-anchor="middle" x="400.19" y="-51.52" font-family="Times,serif" font-size="14.00">codes</text>
</g>
<!-- Uncompressed5 -->
<g id="node34" class="node">
<title>Uncompressed5</title>
<polygon fill="white" stroke="black" points="516.5,-41 455.5,-41 455.5,0 516.5,0 516.5,-41"/>
<text xml:space="preserve" text-anchor="middle" x="486" y="-23.7" font-family="Times,serif" font-size="14.00">Uncom&#45;</text>
<text xml:space="preserve" text-anchor="middle" x="486" y="-7.2" font-family="Times,serif" font-size="14.00">pressed</text>
</g>
<!-- Dict1&#45;&gt;Uncompressed5 -->
<g id="edge24" class="edge">
<title>Dict1&#45;&gt;Uncompressed5</title>
<path fill="none" stroke="black" d="M448.13,-98C455.11,-98 460.69,-98 460.69,-98 460.69,-98 460.69,-52.78 460.69,-52.78"/>
<polygon fill="black" stroke="black" points="464.19,-52.78 460.69,-42.78 457.19,-52.78 464.19,-52.78"/>
<text xml:space="preserve" text-anchor="middle" x="452.06" y="-68.37" font-family="Times,serif" font-size="14.00">values</text>
</g>
<!-- Integer41 -->
<g id="node28" class="node">
<title>Integer41</title>
<polygon fill="#90c695" stroke="black" points="589.12,-38.5 534.88,-38.5 534.88,-2.5 589.12,-2.5 589.12,-38.5"/>
<text xml:space="preserve" text-anchor="middle" x="562" y="-15.45" font-family="Times,serif" font-size="14.00">Integer</text>
</g>
<!-- RunEnd&#45;&gt;Integer41 -->
<g id="edge25" class="edge">
<title>RunEnd&#45;&gt;Integer41</title>
<path fill="none" stroke="black" d="M526.21,-98C533.64,-98 539.5,-98 539.5,-98 539.5,-98 539.5,-50.38 539.5,-50.38"/>
<polygon fill="black" stroke="black" points="543,-50.38 539.5,-40.38 536,-50.38 543,-50.38"/>
<text xml:space="preserve" text-anchor="middle" x="539.5" y="-67.53" font-family="Times,serif" font-size="14.00">ends</text>
</g>
<!-- Integer42 -->
<g id="node29" class="node">
<title>Integer42</title>
<polygon fill="#90c695" stroke="black" points="661.12,-38.5 606.88,-38.5 606.88,-2.5 661.12,-2.5 661.12,-38.5"/>
<text xml:space="preserve" text-anchor="middle" x="634" y="-15.45" font-family="Times,serif" font-size="14.00">Integer</text>
</g>
<!-- RunEnd&#45;&gt;Integer42 -->
<g id="edge26" class="edge">
<title>RunEnd&#45;&gt;Integer42</title>
<path fill="none" stroke="black" d="M521.31,-79.35C521.31,-71.91 521.31,-65 521.31,-65 521.31,-65 620.69,-65 620.69,-65 620.69,-65 620.69,-50.37 620.69,-50.37"/>
<polygon fill="black" stroke="black" points="624.19,-50.37 620.69,-40.37 617.19,-50.37 624.19,-50.37"/>
<text xml:space="preserve" text-anchor="middle" x="588.39" y="-51.7" font-family="Times,serif" font-size="14.00">values</text>
</g>
<!-- BitPacking3 -->
<g id="node23" class="node">
<title>BitPacking3</title>
<polygon fill="white" stroke="black" points="873,-38.5 797,-38.5 797,-2.5 873,-2.5 873,-38.5"/>
<text xml:space="preserve" text-anchor="middle" x="835" y="-15.45" font-family="Times,serif" font-size="14.00">BitPacking</text>
</g>
<!-- ALP&#45;&gt;BitPacking3 -->
<g id="edge27" class="edge">
<title>ALP&#45;&gt;BitPacking3</title>
<path fill="none" stroke="black" d="M821,-79.25C821,-79.25 821,-50.4 821,-50.4"/>
<polygon fill="black" stroke="black" points="824.5,-50.4 821,-40.4 817.5,-50.4 824.5,-50.4"/>
</g>
<!-- ALPRD&#45;&gt;BitPacking3 -->
<g id="edge28" class="edge">
<title>ALPRD&#45;&gt;BitPacking3</title>
<path fill="none" stroke="black" d="M867.94,-79.25C867.94,-79.25 867.94,-50.4 867.94,-50.4"/>
<polygon fill="black" stroke="black" points="871.44,-50.4 867.94,-40.4 864.44,-50.4 871.44,-50.4"/>
</g>
<!-- Integer51 -->
<g id="node30" class="node">
<title>Integer51</title>
<polygon fill="#90c695" stroke="black" points="978.12,-38.5 923.88,-38.5 923.88,-2.5 978.12,-2.5 978.12,-38.5"/>
<text xml:space="preserve" text-anchor="middle" x="951" y="-15.45" font-family="Times,serif" font-size="14.00">Integer</text>
</g>
<!-- Dict2&#45;&gt;Integer51 -->
<g id="edge29" class="edge">
<title>Dict2&#45;&gt;Integer51</title>
<path fill="none" stroke="black" d="M959.56,-79.25C959.56,-79.25 959.56,-50.4 959.56,-50.4"/>
<polygon fill="black" stroke="black" points="963.06,-50.4 959.56,-40.4 956.06,-50.4 963.06,-50.4"/>
<text xml:space="preserve" text-anchor="middle" x="944.19" y="-51.52" font-family="Times,serif" font-size="14.00">codes</text>
</g>
<!-- Float52 -->
<g id="node31" class="node">
<title>Float52</title>
<polygon fill="#90c695" stroke="black" points="1050,-38.5 996,-38.5 996,-2.5 1050,-2.5 1050,-38.5"/>
<text xml:space="preserve" text-anchor="middle" x="1023" y="-15.45" font-family="Times,serif" font-size="14.00">Float</text>
</g>
<!-- Dict2&#45;&gt;Float52 -->
<g id="edge30" class="edge">
<title>Dict2&#45;&gt;Float52</title>
<path fill="none" stroke="black" d="M986.56,-79.37C986.56,-56.75 986.56,-21 986.56,-21 986.56,-21 987.48,-21 987.48,-21"/>
<polygon fill="black" stroke="black" points="984.24,-24.5 994.24,-21 984.24,-17.5 984.24,-24.5"/>
<text xml:space="preserve" text-anchor="middle" x="1003.81" y="-52.93" font-family="Times,serif" font-size="14.00">values</text>
</g>
<!-- Integer71 -->
<g id="node32" class="node">
<title>Integer71</title>
<polygon fill="#90c695" stroke="black" points="1122.12,-38.5 1067.88,-38.5 1067.88,-2.5 1122.12,-2.5 1122.12,-38.5"/>
<text xml:space="preserve" text-anchor="middle" x="1095" y="-15.45" font-family="Times,serif" font-size="14.00">Integer</text>
</g>
<!-- Dict3&#45;&gt;Integer71 -->
<g id="edge31" class="edge">
<title>Dict3&#45;&gt;Integer71</title>
<path fill="none" stroke="black" d="M1133.75,-79.37C1133.75,-56.75 1133.75,-21 1133.75,-21 1133.75,-21 1132.61,-21 1132.61,-21"/>
<polygon fill="black" stroke="black" points="1133.85,-17.5 1123.85,-21 1133.85,-24.5 1133.85,-17.5"/>
<text xml:space="preserve" text-anchor="middle" x="1118.38" y="-52.81" font-family="Times,serif" font-size="14.00">codes</text>
</g>
<!-- Uncompressed4 -->
<g id="node33" class="node">
<title>Uncompressed4</title>
<polygon fill="white" stroke="black" points="1201.5,-41 1140.5,-41 1140.5,0 1201.5,0 1201.5,-41"/>
<text xml:space="preserve" text-anchor="middle" x="1171" y="-23.7" font-family="Times,serif" font-size="14.00">Uncom&#45;</text>
<text xml:space="preserve" text-anchor="middle" x="1171" y="-7.2" font-family="Times,serif" font-size="14.00">pressed</text>
</g>
<!-- Dict3&#45;&gt;Uncompressed4 -->
<g id="edge32" class="edge">
<title>Dict3&#45;&gt;Uncompressed4</title>
<path fill="none" stroke="black" d="M1160.75,-79.25C1160.75,-79.25 1160.75,-52.85 1160.75,-52.85"/>
<polygon fill="black" stroke="black" points="1164.25,-52.85 1160.75,-42.85 1157.25,-52.85 1164.25,-52.85"/>
<text xml:space="preserve" text-anchor="middle" x="1178" y="-52.75" font-family="Times,serif" font-size="14.00">values</text>
</g>
<!-- FSST21 -->
<g id="node35" class="node">
<title>FSST21</title>
<polygon fill="white" stroke="black" points="1308,-38.5 1254,-38.5 1254,-2.5 1308,-2.5 1308,-38.5"/>
<text xml:space="preserve" text-anchor="middle" x="1281" y="-15.45" font-family="Times,serif" font-size="14.00">FSST</text>
</g>
<!-- DictFSST&#45;&gt;FSST21 -->
<g id="edge33" class="edge">
<title>DictFSST&#45;&gt;FSST21</title>
<path fill="none" stroke="black" d="M1289.5,-76.87C1289.5,-76.87 1289.5,-50.34 1289.5,-50.34"/>
<polygon fill="black" stroke="black" points="1293,-50.34 1289.5,-40.34 1286,-50.34 1293,-50.34"/>
<text xml:space="preserve" text-anchor="middle" x="1272.25" y="-50.3" font-family="Times,serif" font-size="14.00">values</text>
</g>
<!-- Integer62 -->
<g id="node36" class="node">
<title>Integer62</title>
<polygon fill="#90c695" stroke="black" points="1380.12,-38.5 1325.88,-38.5 1325.88,-2.5 1380.12,-2.5 1380.12,-38.5"/>
<text xml:space="preserve" text-anchor="middle" x="1353" y="-15.45" font-family="Times,serif" font-size="14.00">Integer</text>
</g>
<!-- DictFSST&#45;&gt;Integer62 -->
<g id="edge34" class="edge">
<title>DictFSST&#45;&gt;Integer62</title>
<path fill="none" stroke="black" d="M1316.5,-76.6C1316.5,-53.95 1316.5,-21 1316.5,-21 1316.5,-21 1317.42,-21 1317.42,-21"/>
<polygon fill="black" stroke="black" points="1314.2,-24.5 1324.2,-21 1314.2,-17.5 1314.2,-24.5"/>
<text xml:space="preserve" text-anchor="middle" x="1331.88" y="-51.54" font-family="Times,serif" font-size="14.00">codes</text>
</g>
</g>
</svg>
