<svg width="600" height="600" viewBox="0 0 600 600" fill="none" xmlns="http://www.w3.org/2000/svg">
<g clip-path="url(#clip0_4583_646)">
<path d="M369.501 360.964L253.633 476.832L277.603 500.802L393.47 384.934L369.501 360.964Z" fill="white"/>
<path d="M306.01 392.248H142.148V426.147H306.01V392.248Z" fill="white"/>
<path d="M239.141 369.525L123.273 253.657L99.3037 277.627L215.171 393.494L239.141 369.525Z" fill="white"/>
<path d="M207.781 306.042V142.18H173.883V306.042H207.781Z" fill="white"/>
<path d="M230.453 239.033L346.32 123.166L322.351 99.1958L206.483 215.064L230.453 239.033Z" fill="white"/>
<path d="M293.998 207.726L457.859 207.726V173.828L293.998 173.828V207.726Z" fill="white"/>
<path d="M360.894 230.474L476.762 346.342L500.731 322.372L384.864 206.504L360.894 230.474Z" fill="white"/>
<path d="M392.27 293.943V457.805H426.168V293.943H392.27Z" fill="white"/>
</g>
<defs>
<clipPath id="clip0_4583_646">
<rect width="400" height="400" fill="white" transform="translate(100 100)"/>
</clipPath>
</defs>
</svg>
