<svg width="500" height="500" viewBox="0 0 500 500" fill="none" xmlns="http://www.w3.org/2000/svg">
<g clip-path="url(#clip0_7195_64)">
<path d="M299.082 340.024L279.512 500L257.664 487.388L257.061 487.037L273.938 354.407L168.704 435.276L168.148 435.705L146.328 423.107L275.085 326.171L299.082 340.024Z" fill="black"/>
<path d="M213.877 321.597L214.055 322.269L220.868 347.693L221.046 348.361L94.0903 447.644L87.3801 422.602L193.096 340.753L61.5056 323.525L60.8081 323.435L60.6276 322.756L54.2866 299.097L213.877 321.597Z" fill="black"/>
<path d="M447.644 405.91L422.604 412.62L340.755 306.902L323.525 438.494L323.435 439.192L322.756 439.372L299.097 445.711L321.597 286.123L322.269 285.945L347.693 279.132L348.363 278.954L447.644 405.91Z" fill="black"/>
<path d="M500 220.488L487.037 242.941L354.407 226.062L435.705 331.854L435.354 332.459L423.105 353.672L326.171 224.917L340.026 200.92L500 220.488Z" fill="black"/>
<path d="M173.41 274.531L173.829 275.083L159.974 299.08L0 279.51L12.9609 257.059L145.587 273.936L64.7222 168.704L64.2935 168.148L76.8933 146.326L173.41 274.531Z" fill="black"/>
<path d="M178.404 213.875L177.733 214.055L152.307 220.868L151.639 221.048L52.3583 94.0903L77.3979 87.3821L77.8246 87.9319L159.245 193.096L176.565 60.8101L200.903 54.2866L178.404 213.875Z" fill="black"/>
<path d="M412.618 77.3979L306.904 159.245L438.494 176.475L439.192 176.567L445.711 200.903L286.123 178.404L285.945 177.733L279.13 152.309L278.952 151.637L405.908 52.3583L412.618 77.3979Z" fill="black"/>
<path d="M242.338 12.6142L242.941 12.9609L226.062 145.589L331.854 64.2955L353.675 76.8953L224.917 173.829L201.521 160.322L200.92 159.974L220.49 0L242.338 12.6142Z" fill="black"/>
</g>
<defs>
<clipPath id="clip0_7195_64">
<rect width="500" height="500" fill="white"/>
</clipPath>
</defs>
</svg>
