<svg width="655" height="190" viewBox="0 0 655 190" fill="none" xmlns="http://www.w3.org/2000/svg">
<path fill-rule="evenodd" clip-rule="evenodd" d="M336.632 50.0713C345.675 50.0713 353.42 51.8997 359.866 55.5557C366.409 59.2117 371.46 64.4069 375.02 71.1416C378.579 77.8764 380.359 85.8623 380.359 95.0986C380.359 104.239 378.579 112.224 375.02 119.055C371.46 125.789 366.409 130.986 359.866 134.642C353.324 138.297 345.579 140.125 336.632 140.125C327.781 140.125 320.083 138.297 313.541 134.642C306.999 130.889 301.899 125.646 298.243 118.911C294.683 112.176 292.903 104.239 292.903 95.0986C292.903 85.9586 294.683 78.0209 298.243 71.2861C301.803 64.5514 306.854 59.3562 313.396 55.7002C320.035 51.948 327.78 50.0713 336.632 50.0713ZM336.632 61.9053C327.203 61.9053 319.794 64.8401 314.406 70.709C309.115 76.4817 306.469 84.6118 306.469 95.0986C306.469 105.585 309.115 113.763 314.406 119.632C319.794 125.405 327.203 128.291 336.632 128.291C346.157 128.291 353.565 125.404 358.856 119.632C364.148 113.763 366.794 105.585 366.794 95.0986C366.794 84.5154 364.148 76.3371 358.856 70.5645C353.565 64.7919 346.157 61.9054 336.632 61.9053Z" fill="url(#paint0_linear_4803_85)"/>
<path fill-rule="evenodd" clip-rule="evenodd" d="M534.167 50.0713C542.345 50.0714 549.416 51.7549 555.381 55.1221C561.346 58.3932 565.964 63.0599 569.235 69.1211C572.603 75.1824 574.287 82.3508 574.287 90.625V96.6855H504.148C504.533 106.595 507.42 114.341 512.808 119.921C518.292 125.501 525.556 128.291 534.6 128.291C540.853 128.291 546.145 126.944 550.475 124.25C554.9 121.556 557.931 117.66 559.566 112.561H573.421C571.208 121.316 566.685 128.099 559.854 132.909C553.12 137.72 544.75 140.125 534.744 140.125C525.893 140.125 518.196 138.297 511.653 134.642C505.111 130.889 500.06 125.597 496.5 118.767C492.94 111.936 491.16 103.95 491.16 94.8096C491.16 85.6696 492.94 77.7801 496.5 71.1416C500.06 64.4069 505.063 59.2117 511.509 55.5557C517.955 51.8996 525.508 50.0713 534.167 50.0713ZM534.022 61.6172C526.229 61.6172 519.734 63.7818 514.539 68.1113C509.44 72.4408 506.217 78.502 504.87 86.2949H561.153C560.48 78.502 557.738 72.4408 552.928 68.1113C548.117 63.7819 541.815 61.6172 534.022 61.6172Z" fill="url(#paint1_linear_4803_85)"/>
<path d="M255.222 125.116H255.799L286.105 51.8037H299.671L262.87 138.394H247.284L210.482 51.8037H224.481L255.222 125.116Z" fill="url(#paint2_linear_4803_85)"/>
<path d="M466.534 51.8037H490.202V62.1943H466.679V127.714H492.511V138.394H465.957C461.916 138.394 458.741 137.384 456.432 135.363C454.219 133.247 453.112 130.119 453.112 125.982V62.1943H435.015C425.971 62.1943 418.899 65.4657 413.8 70.8535C408.701 76.2413 406.151 83.5531 406.151 92.7891V138.394H392.586V66.2354H385.37V51.8037H400.379V67.6777H406.439C408.941 62.5787 412.694 58.5865 417.696 55.7002C422.795 52.7176 428.809 51.8037 435.736 51.8037H453.257V25.8262H466.534V51.8037Z" fill="url(#paint3_linear_4803_85)"/>
<path d="M610.623 85.2852L636.889 51.8037H651.608L618.849 93.9434L653.341 138.394H637.754L610.189 102.892L582.625 138.394H567.616L602.108 93.9434L569.348 51.8037H584.356L610.623 85.2852Z" fill="url(#paint4_linear_4803_85)"/>
<path d="M105.168 122.273L105.17 122.274L114.347 127.573L106.886 188.563L97.542 183.169L97.54 183.168L97.3184 183.04L96.7461 182.707L96.8281 182.051L96.8594 181.796L96.8604 181.794L102.731 135.653L65.7314 164.088L65.2021 164.496L64.623 164.163L64.3994 164.034L64.3975 164.033L55.2871 158.773L104.375 121.817L105.168 122.273Z" fill="url(#paint5_linear_4803_85)"/>
<path d="M82.7344 120.434L82.9043 121.074L82.9688 121.319L85.4756 130.669L85.541 130.916L85.7119 131.555L38.502 168.474L37.3115 169.408L34.2793 158.094L71.7842 129.055L25.7715 123.031L24.8516 122.912L24.6123 122.016L21.8887 111.854L82.7344 120.434Z" fill="url(#paint6_linear_4803_85)"/>
<path d="M168.337 151.263L168.697 151.721L169.631 152.912L158.317 155.944L129.278 118.438L123.222 164.707L123.136 165.372L122.487 165.545L122.238 165.61L122.239 165.611L112.078 168.333L120.564 108.146L120.656 107.489L121.297 107.319L131.14 104.682L131.778 104.512L168.337 151.263Z" fill="url(#paint7_linear_4803_85)"/>
<path d="M188.787 83.3379L183.264 92.9043L182.931 93.4795L135.878 87.4912L164.721 125.024L164.385 125.604L164.255 125.825L164.256 125.826L158.996 134.937L122.039 85.8477L122.371 85.2744L122.498 85.0537L127.797 75.877L188.787 83.3379Z" fill="url(#paint8_linear_4803_85)"/>
<path d="M67.8545 103.419L68.4072 104.151L63.1084 113.329L63.1074 113.33L62.6484 114.123L1.65918 106.662L7.05469 97.3184L7.18066 97.0977L7.5127 96.5195L8.17383 96.6045L54.5664 102.507L26.291 65.7109L25.7256 64.9775L31.4502 55.0635L67.8545 103.419Z" fill="url(#paint9_linear_4803_85)"/>
<path d="M69.79 82.5078L69.1533 82.6797L68.9062 82.7461L68.9053 82.7471L59.5547 85.251L59.5557 85.252L58.6699 85.4912L20.8184 37.0869L32.1279 34.0557L32.5361 34.5811L61.167 71.5605L67.3125 24.6279L67.959 24.4561L78.3691 21.666L69.79 82.5078Z" fill="url(#paint10_linear_4803_85)"/>
<path d="M156.167 31.9062L118.661 60.9434L164.675 66.9688H164.677L165.595 67.0908L168.556 78.1455L107.713 69.5664L104.971 59.332L104.97 59.3301L104.904 59.083L104.734 58.4443L153.136 20.5947L156.167 31.9062Z" fill="url(#paint11_linear_4803_85)"/>
<path d="M92.9033 6.83105L93.126 6.95801L93.7031 7.29004L87.7148 54.3438L125.248 25.5029L126.051 25.9678L135.16 31.2275L86.6006 67.7861L86.0713 68.1836L76.8945 62.8857L76.8936 62.8848L76.1006 62.4258L83.5615 1.43652L92.9033 6.83105Z" fill="url(#paint12_linear_4803_85)"/>
<defs>
<linearGradient id="paint0_linear_4803_85" x1="327.5" y1="1.43652" x2="327.5" y2="188.563" gradientUnits="userSpaceOnUse">
<stop stop-color="white"/>
<stop offset="1" stop-color="#CDCDCD"/>
</linearGradient>
<linearGradient id="paint1_linear_4803_85" x1="327.5" y1="1.43652" x2="327.5" y2="188.563" gradientUnits="userSpaceOnUse">
<stop stop-color="white"/>
<stop offset="1" stop-color="#CDCDCD"/>
</linearGradient>
<linearGradient id="paint2_linear_4803_85" x1="327.5" y1="1.43652" x2="327.5" y2="188.563" gradientUnits="userSpaceOnUse">
<stop stop-color="white"/>
<stop offset="1" stop-color="#CDCDCD"/>
</linearGradient>
<linearGradient id="paint3_linear_4803_85" x1="327.5" y1="1.43652" x2="327.5" y2="188.563" gradientUnits="userSpaceOnUse">
<stop stop-color="white"/>
<stop offset="1" stop-color="#CDCDCD"/>
</linearGradient>
<linearGradient id="paint4_linear_4803_85" x1="327.5" y1="1.43652" x2="327.5" y2="188.563" gradientUnits="userSpaceOnUse">
<stop stop-color="white"/>
<stop offset="1" stop-color="#CDCDCD"/>
</linearGradient>
<linearGradient id="paint5_linear_4803_85" x1="327.5" y1="1.43652" x2="327.5" y2="188.563" gradientUnits="userSpaceOnUse">
<stop stop-color="white"/>
<stop offset="1" stop-color="#CDCDCD"/>
</linearGradient>
<linearGradient id="paint6_linear_4803_85" x1="327.5" y1="1.43652" x2="327.5" y2="188.563" gradientUnits="userSpaceOnUse">
<stop stop-color="white"/>
<stop offset="1" stop-color="#CDCDCD"/>
</linearGradient>
<linearGradient id="paint7_linear_4803_85" x1="327.5" y1="1.43652" x2="327.5" y2="188.563" gradientUnits="userSpaceOnUse">
<stop stop-color="white"/>
<stop offset="1" stop-color="#CDCDCD"/>
</linearGradient>
<linearGradient id="paint8_linear_4803_85" x1="327.5" y1="1.43652" x2="327.5" y2="188.563" gradientUnits="userSpaceOnUse">
<stop stop-color="white"/>
<stop offset="1" stop-color="#CDCDCD"/>
</linearGradient>
<linearGradient id="paint9_linear_4803_85" x1="327.5" y1="1.43652" x2="327.5" y2="188.563" gradientUnits="userSpaceOnUse">
<stop stop-color="white"/>
<stop offset="1" stop-color="#CDCDCD"/>
</linearGradient>
<linearGradient id="paint10_linear_4803_85" x1="327.5" y1="1.43652" x2="327.5" y2="188.563" gradientUnits="userSpaceOnUse">
<stop stop-color="white"/>
<stop offset="1" stop-color="#CDCDCD"/>
</linearGradient>
<linearGradient id="paint11_linear_4803_85" x1="327.5" y1="1.43652" x2="327.5" y2="188.563" gradientUnits="userSpaceOnUse">
<stop stop-color="white"/>
<stop offset="1" stop-color="#CDCDCD"/>
</linearGradient>
<linearGradient id="paint12_linear_4803_85" x1="327.5" y1="1.43652" x2="327.5" y2="188.563" gradientUnits="userSpaceOnUse">
<stop stop-color="white"/>
<stop offset="1" stop-color="#CDCDCD"/>
</linearGradient>
</defs>
</svg>
