<svg width="600" height="600" viewBox="0 0 600 600" fill="none" xmlns="http://www.w3.org/2000/svg">
<g clip-path="url(#clip0_4583_642)">
<path d="M369.503 360.964L253.635 476.832L277.604 500.802L393.472 384.934L369.503 360.964Z" fill="#101010"/>
<path d="M306.008 392.248H142.146V426.147H306.008V392.248Z" fill="#101010"/>
<path d="M239.141 369.525L123.273 253.657L99.3037 277.627L215.171 393.494L239.141 369.525Z" fill="#101010"/>
<path d="M207.781 306.042V142.18H173.883V306.042H207.781Z" fill="#101010"/>
<path d="M230.455 239.033L346.322 123.166L322.353 99.1958L206.485 215.064L230.455 239.033Z" fill="#101010"/>
<path d="M293.998 207.726L457.859 207.726V173.828L293.998 173.828V207.726Z" fill="#101010"/>
<path d="M360.894 230.474L476.762 346.342L500.731 322.372L384.864 206.504L360.894 230.474Z" fill="#101010"/>
<path d="M392.27 293.943V457.805H426.168V293.943H392.27Z" fill="#101010"/>
</g>
<defs>
<clipPath id="clip0_4583_642">
<rect width="400" height="400" fill="white" transform="translate(100 100)"/>
</clipPath>
</defs>
</svg>
