<svg width="870" height="870" viewBox="0 0 870 870" fill="none" xmlns="http://www.w3.org/2000/svg">
<path d="M483.917 524.86L464.347 684.836L442.499 672.224L441.896 671.873L458.773 539.243L353.539 620.112L352.983 620.54L331.163 607.943L459.92 511.007L483.917 524.86Z" fill="white"/>
<path d="M398.712 506.432L398.89 507.105L405.703 532.529L405.881 533.197L278.925 632.48L272.215 607.438L377.931 525.589L246.341 508.361L245.643 508.271L245.463 507.591L239.122 483.933L398.712 506.432Z" fill="white"/>
<path d="M632.479 590.746L607.439 597.456L525.59 491.738L508.36 623.33L508.27 624.028L507.591 624.208L483.932 630.547L506.431 470.959L507.104 470.781L532.528 463.968L533.198 463.79L632.479 590.746Z" fill="white"/>
<path d="M684.835 405.324L671.872 427.777L539.242 410.898L620.54 516.69L620.189 517.295L607.94 538.508L511.006 409.753L524.861 385.756L684.835 405.324Z" fill="white"/>
<path d="M358.245 459.367L358.664 459.919L344.809 483.916L184.835 464.346L197.796 441.895L330.422 458.772L249.557 353.54L249.128 352.984L261.728 331.161L358.245 459.367Z" fill="white"/>
<path d="M363.239 398.71L362.568 398.891L337.142 405.704L336.474 405.884L237.193 278.926L262.233 272.218L262.66 272.768L344.08 377.932L361.4 245.646L385.738 239.123L363.239 398.71Z" fill="white"/>
<path d="M597.453 262.234L491.739 344.081L623.329 361.311L624.027 361.403L630.546 385.739L470.958 363.239L470.78 362.569L463.965 337.145L463.787 336.473L590.743 237.194L597.453 262.234Z" fill="white"/>
<path d="M427.173 197.45L427.776 197.797L410.897 330.425L516.689 249.131L538.51 261.731L409.752 358.665L386.356 345.158L385.755 344.81L405.325 184.836L427.173 197.45Z" fill="white"/>
</svg>
